<svg width="24" height="24" viewBox="0 0 24 24" fill="none" xmlns="http://www.w3.org/2000/svg">
<g clip-path="url(#clip0_1_59)">
<path d="M20.7273 0H3.27273C1.46525 0 0 1.46525 0 3.27273V20.7273C0 22.5347 1.46525 24 3.27273 24H20.7273C22.5347 24 24 22.5347 24 20.7273V3.27273C24 1.46525 22.5347 0 20.7273 0Z" fill="white"/>
<path d="M19.4714 7.46047C19.1154 7.9923 18.682 8.468 18.1855 8.87183C18.1211 8.92305 18.0691 8.98817 18.0335 9.06232C17.9978 9.13647 17.9794 9.21773 17.9796 9.30001V9.35047C17.9739 10.4221 17.7772 11.4842 17.3987 12.4868C17.0087 13.5377 16.4296 14.5083 15.69 15.3505C14.7006 16.4784 13.4261 17.3196 12 17.7859C11.0603 18.0909 10.0779 18.2437 9.09002 18.2386C7.52545 18.237 5.98908 17.8221 4.63639 17.0359C4.58795 17.0084 4.54986 16.9658 4.52794 16.9145C4.50603 16.8633 4.50149 16.8063 4.51502 16.7523C4.52874 16.6988 4.55996 16.6515 4.60371 16.6179C4.64746 16.5843 4.70122 16.5663 4.75639 16.5668H5.13002C6.31924 16.5666 7.48126 16.211 8.46684 15.5455C7.87933 15.4494 7.3296 15.1935 6.87788 14.8058C6.42616 14.4181 6.08989 13.9135 5.90593 13.3473C5.89691 13.3194 5.8953 13.2896 5.90126 13.2609C5.90723 13.2321 5.92056 13.2055 5.93996 13.1835C5.95935 13.1615 5.98414 13.1449 6.01189 13.1353C6.03963 13.1258 6.06938 13.1237 6.0982 13.1291C6.27802 13.1633 6.46063 13.1806 6.64366 13.1809H6.71184C6.1424 12.9193 5.66097 12.4982 5.32579 11.9687C4.99061 11.4392 4.81604 10.8239 4.8232 10.1973C4.82359 10.1679 4.83158 10.1391 4.84639 10.1137C4.86119 10.0883 4.88232 10.0672 4.90771 10.0523C4.9331 10.0375 4.96189 10.0295 4.99129 10.0291C5.02068 10.0287 5.04969 10.0359 5.07548 10.05C5.30652 10.179 5.55433 10.2754 5.81184 10.3364C5.30191 9.83224 4.97371 9.17313 4.8787 8.46239C4.78369 7.75165 4.92724 7.02948 5.28684 6.4091C5.30064 6.38624 5.31965 6.36697 5.34232 6.35287C5.365 6.33877 5.39069 6.33024 5.41729 6.32798C5.4439 6.32572 5.47066 6.32979 5.49539 6.33986C5.52012 6.34993 5.54211 6.36572 5.55957 6.38592C6.27375 7.26878 7.15803 7.99916 8.1599 8.53371C9.16178 9.06826 10.2608 9.39609 11.3918 9.49774H11.4041C11.4209 9.49719 11.4373 9.49329 11.4526 9.48626C11.4678 9.47923 11.4815 9.46923 11.4927 9.45683C11.5036 9.44443 11.5118 9.4299 11.5167 9.41416C11.5216 9.39843 11.5232 9.38185 11.5214 9.36547C11.4792 8.96945 11.505 8.56913 11.5978 8.18183C11.679 7.84276 11.8174 7.51998 12.0068 7.22728C12.4045 6.60277 13.0102 6.13905 13.7168 5.91819C14.0483 5.81427 14.3936 5.76094 14.7409 5.76001C15.5287 5.75923 16.2896 6.04633 16.8805 6.56728C16.9558 6.63419 17.0525 6.67193 17.1532 6.67365C17.1864 6.6731 17.2193 6.66852 17.2514 6.66001C17.8069 6.51947 18.3392 6.29948 18.8318 6.00683C18.8615 5.9897 18.8956 5.9819 18.9298 5.98444C18.9639 5.98699 18.9965 5.99977 19.0233 6.02111C19.0501 6.04245 19.0698 6.07137 19.08 6.10409C19.0901 6.13681 19.0901 6.17182 19.08 6.20456C18.9147 6.72067 18.6221 7.18683 18.2291 7.56001C18.5836 7.47535 18.9295 7.3585 19.2627 7.21092C19.2963 7.19595 19.3339 7.19235 19.3697 7.20065C19.4056 7.20895 19.4377 7.2287 19.4613 7.25692C19.4849 7.28513 19.4986 7.32027 19.5005 7.357C19.5023 7.39373 19.4921 7.43006 19.4714 7.46047Z" fill="#090F1D"/>
</g>
<defs>
<clipPath id="clip0_1_59">
<rect width="24" height="24" fill="white"/>
</clipPath>
</defs>
</svg>
