<svg width="24" height="24" viewBox="0 0 24 24" fill="none" xmlns="http://www.w3.org/2000/svg">
<g clip-path="url(#clip0_1_54)">
<path d="M20.7273 0H3.27273C1.46525 0 0 1.46525 0 3.27273V20.7273C0 22.5347 1.46525 24 3.27273 24H20.7273C22.5347 24 24 22.5347 24 20.7273V3.27273C24 1.46525 22.5347 0 20.7273 0Z" fill="white"/>
<path d="M18.5373 6.20455L18.2891 6.29455L4.81912 11.1477C4.72366 11.1772 4.6407 11.2376 4.58323 11.3193C4.52576 11.4011 4.49704 11.4996 4.50156 11.5994C4.50608 11.6992 4.5436 11.7947 4.60822 11.8709C4.67285 11.9471 4.76093 11.9997 4.85866 12.0205L8.34548 12.975L8.99594 14.8841L9.64639 16.7932C9.68376 16.8868 9.7434 16.9698 9.82015 17.0351C9.8969 17.1004 9.98842 17.146 10.0868 17.1679C10.1851 17.1898 10.2874 17.1874 10.3846 17.1608C10.4818 17.1342 10.571 17.0843 10.6446 17.0155L12.4459 15.3136L15.9832 17.7123C16.4155 18.0068 17.0318 17.7886 17.1423 17.3032L19.485 6.95182C19.5996 6.43909 19.0596 6.01773 18.5373 6.20455ZM16.8178 8.50227L10.7318 13.4768L10.4455 13.7114C10.3826 13.7612 10.3415 13.8336 10.3309 13.9132L10.2668 14.4423L10.0909 15.9286C10.0924 15.9467 10.0866 15.9646 10.0748 15.9784C10.0631 15.9923 10.0463 16.0008 10.0282 16.0023C10.0101 16.0037 9.99221 15.9979 9.9784 15.9862C9.96459 15.9744 9.95602 15.9576 9.95457 15.9395L9.45957 14.4545L8.94821 12.9341C8.92658 12.8657 8.92945 12.792 8.95634 12.7255C8.98322 12.6591 9.03242 12.6041 9.09548 12.57L15.4282 8.94L16.62 8.25818C16.7932 8.15727 16.9705 8.37682 16.8178 8.50227Z" fill="#090F1D"/>
</g>
<defs>
<clipPath id="clip0_1_54">
<rect width="24" height="24" fill="white"/>
</clipPath>
</defs>
</svg>
